<svg width="104" height="138" viewBox="0 0 104 138" fill="none" xmlns="http://www.w3.org/2000/svg">
<rect width="104" height="138" fill="white"/>
<path d="M50.0132 11C70.458 11 87.0265 27.5234 87.0265 47.8997V121.562H13V47.8997C13 27.5234 29.5685 11 50.0132 11Z" fill="url(#paint0_linear_2258_1145)" stroke="black" stroke-width="2"/>
<path d="M76.1587 93.6108C76.224 93.0607 77.021 93.0607 77.0862 93.6108L77.633 98.2249C78.339 104.183 83.0301 108.88 88.9801 109.587L93.588 110.135C94.1373 110.2 94.1373 110.998 93.588 111.064L88.9801 111.611C83.0301 112.318 78.339 117.015 77.633 122.973L77.0862 127.588C77.021 128.138 76.224 128.138 76.1587 127.588L75.612 122.973C74.906 117.015 70.2149 112.318 64.2648 111.611L59.6569 111.064C59.1077 110.998 59.1077 110.2 59.6569 110.135L64.2648 109.587C70.2149 108.88 74.906 104.183 75.612 98.2249L76.1587 93.6108Z" fill="#F2994A" stroke="black" stroke-width="2"/>
<defs>
<linearGradient id="paint0_linear_2258_1145" x1="50.0132" y1="10" x2="50.0132" y2="122.562" gradientUnits="userSpaceOnUse">
<stop stop-color="#8DB6DB"/>
<stop offset="0.9999" stop-color="white"/>
<stop offset="1" stop-color="#FFBB25" stop-opacity="0"/>
</linearGradient>
</defs>
</svg>
